<?xml version="1.0" standalone="no"?>
<!DOCTYPE svg PUBLIC "-//W3C//DTD SVG 20010904//EN"
 "http://www.w3.org/TR/2001/REC-SVG-20010904/DTD/svg10.dtd">
<svg version="1.0" xmlns="http://www.w3.org/2000/svg"
 width="1210.000000pt" height="246.000000pt" viewBox="0 0 1210.000000 246.000000"
 preserveAspectRatio="xMidYMid meet">

<g transform="translate(0.000000,246.000000) scale(0.100000,-0.100000)"
fill="#000000" stroke="none">
<path d="M996 2000 c-80 -10 -218 -54 -261 -83 -55 -37 -97 -82 -123 -132 -24
-45 -27 -61 -27 -160 0 -141 -1 -138 140 -429 113 -235 147 -336 149 -442 1
-70 -2 -85 -24 -117 -29 -43 -73 -61 -143 -59 -116 2 -195 58 -252 177 l-28
60 -29 -90 c-15 -49 -28 -97 -28 -105 0 -18 120 -73 211 -96 46 -12 90 -15
155 -12 78 4 99 10 153 38 127 68 191 187 191 357 0 103 -33 207 -123 388
-118 239 -157 354 -159 471 -1 73 15 104 65 130 46 25 165 22 242 -6 33 -11
68 -24 79 -27 15 -5 12 7 -20 68 -44 84 -43 83 -168 69z"/>
<path d="M1272 1950 l23 -32 3 -694 3 -694 107 -2 c443 -6 661 40 789 168 95
95 137 268 98 398 -47 154 -181 271 -351 306 l-58 12 25 19 c13 10 30 19 36
19 7 0 36 24 65 53 151 151 102 368 -101 449 -53 21 -74 23 -359 26 l-304 4
24 -32z m467 -79 c103 -53 155 -191 119 -315 -15 -50 -103 -141 -168 -173
l-45 -23 62 0 c241 0 363 -115 363 -341 0 -208 -75 -345 -219 -400 -44 -17
-80 -22 -166 -23 -60 0 -118 2 -127 6 -17 7 -18 47 -18 638 l0 631 23 9 c41
16 135 11 176 -9z"/>
<path d="M3177 1973 c-4 -3 -7 -205 -7 -447 0 -494 8 -588 58 -698 61 -134
171 -230 327 -284 70 -24 96 -28 200 -28 140 -1 202 14 293 74 88 57 156 144
194 250 40 111 43 150 43 650 l0 485 -54 3 c-37 2 -57 -1 -62 -10 -5 -7 -9
-229 -9 -494 0 -412 -2 -488 -16 -535 -52 -175 -184 -289 -338 -290 -75 -1
-93 3 -163 38 -99 48 -181 154 -209 271 -10 44 -13 169 -14 540 l0 482 -118 0
c-65 0 -122 -3 -125 -7z"/>
<path d="M4493 1536 c15 -22 17 -80 19 -513 l3 -488 40 0 40 0 3 388 c1 213 6
387 10 386 4 0 75 -93 157 -206 241 -330 435 -588 445 -591 7 -3 9 182 8 520
l-3 523 -34 3 c-20 2 -37 -2 -42 -10 -5 -7 -9 -163 -9 -345 0 -183 -3 -333 -7
-333 -5 1 -93 116 -198 256 -104 141 -219 295 -255 343 l-65 86 -64 3 -64 3
16 -25z"/>
<path d="M6260 1045 l0 -516 83 3 82 3 0 510 0 510 -82 3 -83 3 0 -516z"/>
<path d="M6656 1544 c-3 -9 -6 -238 -6 -510 l0 -494 275 0 275 0 32 65 c18 35
29 67 26 70 -3 4 -26 -6 -50 -22 -42 -28 -46 -28 -215 -31 l-173 -4 0 471 0
471 -79 0 c-63 0 -80 -3 -85 -16z"/>
<path d="M9085 1548 c-3 -7 -4 -238 -3 -513 l3 -500 80 0 80 0 3 487 2 488 26
6 c14 4 44 3 67 0 99 -16 144 -83 135 -199 -7 -77 -40 -133 -99 -167 -41 -23
-40 -39 4 -40 28 0 91 -36 105 -60 7 -12 17 -61 22 -109 25 -233 81 -365 175
-411 40 -19 50 -20 97 -10 70 14 83 23 70 46 -8 14 -20 18 -49 16 -68 -5 -95
43 -113 203 -16 144 -30 207 -58 259 -26 48 -91 106 -119 106 -20 0 -16 18 7
25 101 32 156 197 95 287 -28 41 -88 73 -164 88 -80 15 -360 13 -366 -2z"/>
<path d="M10952 1553 c-85 -3 -93 -5 -85 -21 4 -9 9 -237 11 -506 l3 -489 162
6 c140 4 173 8 240 31 124 42 212 104 277 197 70 99 99 195 100 326 1 205 -92
354 -261 416 -115 43 -180 49 -447 40z m249 -43 c90 -13 150 -41 199 -91 90
-93 120 -253 85 -444 -19 -103 -33 -143 -80 -214 -65 -101 -161 -158 -287
-168 l-68 -6 0 461 c0 359 3 461 13 465 20 8 67 7 138 -3z"/>
<path d="M5420 1040 l0 -511 83 3 82 3 5 250 5 250 165 0 164 0 7 25 c4 14 7
38 8 53 1 24 -1 26 -18 17 -11 -6 -87 -10 -175 -10 l-156 0 0 176 0 175 213
-3 c116 -2 220 -7 230 -12 22 -10 23 11 3 59 l-15 35 -300 0 -301 0 0 -510z"/>
<path d="M7413 1523 c-20 -31 -53 -99 -53 -112 0 -4 28 6 62 23 53 26 72 30
142 31 l81 0 5 -465 5 -465 80 0 80 0 5 465 5 465 81 0 c71 -1 89 -5 148 -34
37 -18 70 -31 72 -28 3 3 -10 36 -28 73 l-33 69 -317 3 -316 2 -19 -27z"/>
<path d="M8207 1543 c-4 -3 -7 -231 -7 -505 l0 -498 330 0 331 0 34 73 c19 39
30 73 25 75 -4 2 -37 -12 -72 -30 l-63 -33 -208 -3 -207 -3 2 208 3 208 168 3
c136 2 175 -1 200 -13 16 -8 34 -15 39 -15 4 0 8 29 8 65 0 65 -10 81 -36 55
-7 -7 -79 -9 -195 -8 l-184 3 0 170 0 170 190 3 c120 2 204 -1 228 -8 22 -6
41 -9 43 -7 3 2 -4 25 -15 51 l-20 46 -294 0 c-162 0 -297 -3 -300 -7z"/>
<path d="M10000 1045 l0 -505 328 0 327 0 33 72 c18 39 30 73 28 75 -2 2 -35
-11 -72 -29 l-69 -33 -202 -3 -203 -3 0 210 0 211 165 0 c125 0 175 -4 202
-15 19 -8 37 -15 39 -15 2 0 4 30 4 66 0 60 -2 65 -17 58 -10 -5 -102 -10
-205 -12 l-188 -3 0 176 0 175 194 0 c116 0 206 -4 225 -11 18 -6 35 -9 38 -5
3 3 -2 26 -11 51 l-18 45 -299 0 -299 0 0 -505z"/>
</g>
</svg>
