<?xml version="1.0" standalone="no"?>
<!DOCTYPE svg PUBLIC "-//W3C//DTD SVG 20010904//EN"
 "http://www.w3.org/TR/2001/REC-SVG-20010904/DTD/svg10.dtd">
<svg version="1.0" xmlns="http://www.w3.org/2000/svg"
 width="1280.000000pt" height="922.000000pt" viewBox="0 0 1280.000000 922.000000"
 preserveAspectRatio="xMidYMid meet">

<g transform="translate(0.000000,922.000000) scale(0.100000,-0.100000)"
fill="#000000" stroke="none">
<path d="M6406 9004 c-3 -9 -6 -59 -6 -112 0 -280 -88 -594 -223 -799 -74
-113 -236 -284 -332 -350 -234 -162 -348 -218 -761 -372 -661 -246 -1214 -507
-1525 -719 -330 -225 -504 -403 -771 -788 -166 -239 -181 -255 -249 -265 -29
-4 -114 -8 -186 -8 -121 -1 -133 -3 -133 -19 0 -10 4 -22 9 -27 25 -25 44
-208 38 -369 -6 -195 -26 -281 -151 -664 -47 -142 -99 -312 -116 -378 -91
-348 -113 -420 -137 -452 -30 -40 -48 -48 -66 -30 -351 344 -461 434 -687 568
-236 139 -350 182 -757 284 -118 30 -223 36 -203 11 7 -8 23 -15 36 -15 12 0
26 -4 29 -10 3 -5 86 -50 183 -100 206 -104 301 -164 516 -324 187 -140 309
-254 466 -436 327 -381 531 -771 695 -1325 127 -431 171 -646 219 -1070 44
-390 75 -811 76 -1030 1 -83 2 -88 15 -65 8 14 14 39 15 57 0 17 5 44 11 60 5
15 24 142 40 283 37 311 47 631 30 990 -13 283 -31 454 -100 943 -82 581 -87
712 -34 790 47 67 169 175 241 211 191 96 298 85 489 -50 45 -32 64 -41 70
-32 4 7 10 88 13 179 5 149 9 170 31 214 35 71 61 86 170 97 118 13 395 -4
438 -27 53 -27 174 -225 244 -401 76 -187 103 -342 110 -629 l2 -90 27 56 c40
85 173 500 228 714 54 211 84 368 100 533 13 130 31 212 54 247 l16 25 278 0
c152 0 435 -7 627 -15 193 -8 674 -19 1070 -25 396 -5 821 -14 945 -20 222
-10 435 -4 696 20 199 18 297 15 413 -15 200 -50 490 -162 831 -320 176 -81
262 -115 295 -115 22 0 25 4 25 36 0 24 -9 48 -28 73 -16 20 -57 79 -92 131
-167 250 -558 760 -644 839 -14 14 -26 27 -26 31 0 12 216 -17 420 -56 225
-44 977 -268 1805 -539 705 -231 1101 -356 1328 -419 61 -18 175 -24 195 -12
7 4 12 22 12 41 0 25 -8 40 -31 60 -44 36 -71 49 -354 165 -1467 601 -2085
860 -2420 1013 -464 212 -560 262 -663 344 -31 25 -218 208 -415 407 l-358
361 -94 150 c-119 190 -123 196 -249 326 -58 60 -106 113 -106 118 0 11 -161
134 -285 219 -153 104 -172 130 -337 457 -217 430 -539 947 -791 1270 -123
157 -202 218 -221 169z m592 -1029 c84 -154 232 -452 266 -535 15 -36 31 -74
36 -85 5 -11 12 -30 15 -43 6 -22 5 -23 -32 -16 -66 12 -87 35 -133 146 -78
190 -152 351 -368 798 -118 245 -217 461 -219 480 -4 32 222 -356 435 -745z
m-340 180 c55 -126 141 -318 192 -425 111 -234 160 -346 160 -367 0 -13 -9
-14 -47 -8 -58 8 -69 16 -77 55 -3 16 -41 125 -85 242 -43 117 -113 319 -156
448 -42 129 -81 239 -86 245 -9 9 -13 53 -5 44 2 -2 49 -107 104 -234z m-62
-317 c9 -29 45 -121 80 -203 34 -83 66 -164 70 -180 4 -17 11 -36 17 -43 6 -7
12 -24 13 -38 2 -19 -2 -24 -19 -24 -20 0 -29 21 -85 193 -50 155 -102 330
-102 344 0 2 2 3 4 3 3 0 12 -24 22 -52z m-117 -164 c43 -110 88 -220 99 -244
35 -78 34 -88 -4 -92 -39 -5 -54 6 -54 38 0 12 -20 89 -44 171 -24 81 -52 184
-61 228 -10 44 -20 86 -23 95 -3 8 -2 13 1 10 4 -4 42 -96 86 -206z m-140
-193 c51 -141 56 -171 28 -171 -20 0 -34 38 -62 168 -14 64 -28 128 -31 142
-13 59 16 -4 65 -139z m-160 -41 c22 -74 37 -138 35 -142 -3 -5 -19 -8 -36 -8
-23 0 -29 4 -24 15 3 8 -1 66 -9 127 -14 106 -18 175 -9 153 2 -5 21 -71 43
-145z m-404 -129 c25 -72 26 -102 1 -82 -7 6 -13 25 -14 43 -1 18 -6 49 -12
68 -24 84 -7 64 25 -29z m-200 -85 c5 -29 4 -46 -3 -46 -15 0 -22 26 -21 83 0
60 13 41 24 -37z m450 -496 c277 -13 605 -55 823 -105 143 -33 663 -204 686
-226 6 -5 24 -9 40 -10 17 0 25 -3 18 -6 -7 -3 -73 4 -145 16 -73 11 -195 29
-272 40 -77 11 -201 29 -275 41 -74 11 -223 29 -330 40 -369 37 -605 60 -730
70 -189 15 -841 32 -1084 28 -119 -1 -216 0 -216 5 0 4 17 7 38 8 20 0 177 24
347 54 l310 53 290 1 c160 0 385 -4 500 -9z m2222 -195 c34 -52 42 -73 44
-117 3 -66 -2 -74 -43 -81 -53 -8 -226 13 -270 33 l-41 18 106 4 c139 4 147
11 150 126 1 45 4 82 7 81 3 0 24 -29 47 -64z m-2362 -65 c402 -25 643 -70
674 -127 7 -15 4 -32 -16 -74 -37 -79 -51 -123 -76 -229 -20 -87 -22 -120 -22
-405 1 -199 5 -326 12 -355 7 -25 14 -64 18 -87 4 -37 3 -42 -12 -36 -10 3
-25 11 -33 18 -21 17 -343 127 -480 164 -63 16 -179 44 -256 60 -161 34 -222
59 -276 113 -61 61 -74 123 -59 288 21 233 50 453 66 501 31 90 106 152 204
169 65 11 68 11 256 0z m-535 -36 l21 -20 -20 -48 c-31 -71 -77 -240 -96 -346
-9 -56 -18 -186 -22 -319 l-6 -224 -156 7 c-196 9 -232 18 -286 70 -70 68 -75
121 -44 556 10 137 30 254 50 291 5 10 27 20 51 24 102 18 300 33 391 31 83
-1 100 -5 117 -22z m-657 -43 c6 -25 -6 -92 -37 -194 -48 -157 -60 -273 -49
-489 5 -106 13 -200 17 -209 6 -13 -2 -17 -46 -23 -29 -4 -153 -25 -276 -47
-122 -22 -227 -37 -234 -33 -8 5 -9 103 -5 358 4 193 9 365 12 381 2 17 -4 -1
-15 -40 -27 -94 -47 -236 -60 -430 -19 -267 -50 -310 -285 -395 -126 -45 -205
-88 -205 -111 0 -28 38 -25 249 21 102 22 199 40 216 40 38 0 52 -15 94 -95
l32 -60 -6 40 c-3 22 -8 61 -12 88 l-6 47 184 -5 c341 -10 402 -18 467 -61 15
-10 38 -17 52 -16 36 4 134 -28 381 -124 119 -46 225 -84 237 -84 11 0 25 -7
32 -15 7 -8 16 -13 20 -10 4 2 15 -4 25 -15 18 -20 17 -20 -22 -20 -22 0 -88
5 -147 11 -205 20 -805 -14 -1076 -62 -299 -52 -693 -186 -963 -327 -268 -138
-546 -336 -803 -569 -99 -89 -124 -101 -124 -55 0 15 -4 32 -8 38 -18 20 -62
277 -78 456 -6 67 -4 83 15 124 13 26 44 100 71 166 27 65 58 131 68 146 11
15 22 34 24 42 5 13 6 13 11 0 3 -8 15 -88 27 -178 12 -90 27 -180 35 -201 16
-47 54 -131 59 -131 2 0 0 17 -5 38 -5 20 -14 59 -19 85 -5 27 -12 52 -14 56
-5 7 -30 196 -44 325 -10 92 -17 76 113 261 119 170 207 277 330 404 105 108
361 332 465 407 46 33 69 35 49 4 -5 -8 -9 -26 -9 -40 0 -14 -13 -86 -30 -160
-53 -242 -57 -397 -18 -620 13 -76 64 -220 84 -236 8 -6 11 -14 7 -17 -3 -4
-1 -7 6 -7 6 0 16 -11 21 -25 5 -14 14 -25 20 -25 14 0 12 44 -4 82 -20 47
-55 218 -66 323 -22 212 -2 738 29 762 26 21 266 145 408 212 80 38 149 64
175 66 24 2 72 16 108 31 64 27 455 132 496 133 13 1 24 -6 27 -18z m2330 -35
c61 -14 200 -45 307 -70 107 -24 287 -63 399 -86 203 -41 241 -52 241 -70 0
-13 -38 -36 -85 -50 -22 -7 -44 -16 -48 -20 -19 -17 70 -61 238 -118 232 -79
232 -79 283 -93 77 -22 49 -32 -71 -26 -231 14 -372 53 -662 183 -198 89 -725
354 -725 365 0 12 -7 13 123 -15z m-3053 -2 c0 -3 -69 -38 -152 -78 -234 -112
-427 -232 -682 -425 -81 -60 -95 -68 -73 -40 32 42 253 244 327 300 115 85
252 150 445 210 130 41 135 42 135 33z m3019 -130 c90 -48 234 -132 287 -167
l31 -21 -76 -45 c-68 -41 -79 -52 -107 -108 -37 -75 -54 -162 -54 -280 0 -112
11 -174 61 -337 77 -251 51 -337 -119 -392 -85 -27 -113 -4 -195 161 -111 222
-123 288 -114 634 6 261 15 306 84 449 56 117 79 152 100 152 9 0 55 -21 102
-46z m-379 -222 c-50 -98 -50 -98 -50 -196 0 -104 21 -227 86 -496 58 -243
122 -417 185 -505 47 -65 181 -137 277 -148 23 -2 46 -8 50 -12 12 -13 -230 4
-284 20 -97 29 -160 121 -227 331 -39 125 -98 378 -122 529 -21 126 -23 275
-6 342 16 67 115 233 138 233 2 0 -19 -44 -47 -98z m835 -47 c33 -9 155 -56
270 -104 116 -49 218 -92 227 -95 15 -4 7 -20 -49 -93 -102 -135 -108 -154
-106 -304 1 -89 6 -136 17 -164 9 -21 15 -39 14 -40 -32 -20 -503 -139 -523
-131 -24 9 -82 141 -99 228 -11 53 -16 134 -16 257 l0 179 35 83 c53 123 111
195 160 198 6 1 38 -6 70 -14z m804 -245 c27 -10 241 -102 474 -204 233 -102
436 -188 451 -192 14 -3 26 -11 26 -16 0 -6 -6 -8 -12 -5 -96 41 -185 73 -478
175 -485 169 -455 156 -490 207 -44 63 -43 64 29 35z m-118 -123 c56 -37 84
-99 84 -184 0 -66 -2 -74 -30 -104 -39 -41 -83 -59 -146 -59 -45 0 -55 4 -81
33 -83 87 -89 203 -15 284 50 54 133 67 188 30z m-3109 -167 c380 -20 745 -87
1083 -198 156 -52 247 -87 315 -122 30 -15 63 -31 74 -34 14 -5 17 -13 13 -36
-5 -21 -2 -32 9 -38 14 -8 14 -10 0 -21 -28 -23 -153 2 -382 77 -219 72 -681
157 -1094 202 -245 26 -436 38 -720 45 -134 3 -246 8 -249 10 -2 3 -2 8 1 11
4 3 203 6 445 7 412 1 454 -1 698 -26 276 -29 447 -54 597 -87 182 -41 367
-90 434 -116 88 -33 130 -46 118 -35 -30 27 -328 128 -546 186 -368 96 -565
120 -1003 119 -331 -1 -713 -23 -783 -46 -24 -7 -37 -7 -45 1 -8 8 -4 11 17
11 15 0 35 4 44 9 9 5 78 16 152 25 74 9 191 24 260 32 69 9 179 19 245 23 66
5 125 9 130 9 6 1 90 -3 187 -8z m3948 -215 c251 -71 495 -144 825 -248 165
-52 315 -98 332 -102 18 -3 36 -11 39 -17 4 -6 -1 -8 -12 -5 -11 3 -41 8 -69
12 -27 3 -162 28 -300 55 -523 103 -642 115 -1035 106 -269 -6 -393 -15 -475
-31 l-30 -7 25 14 c14 8 72 34 130 58 l105 43 200 9 c110 5 247 11 304 14 119
7 129 -3 -94 89 -132 54 -175 75 -130 62 11 -3 94 -26 185 -52z m-510 -69
c-27 -15 -138 -42 -314 -77 -113 -23 -166 -51 -166 -88 0 -39 77 -128 133
-153 26 -12 40 -35 15 -24 -7 3 -33 11 -58 18 -34 10 -64 32 -122 89 -43 42
-78 80 -78 86 0 5 15 26 33 46 26 29 49 41 117 61 127 38 233 54 355 55 98 0
107 -1 85 -13z m76 -270 c75 -35 171 -98 352 -234 299 -225 294 -224 101 -21
-211 221 -259 274 -259 284 0 13 96 -2 131 -20 76 -40 315 -302 596 -653 51
-64 107 -133 123 -152 17 -20 30 -47 30 -62 0 -26 -3 -28 -37 -28 -39 0 -53 9
-194 126 -222 184 -464 336 -883 554 -227 119 -261 156 -200 217 25 25 29 26
106 20 53 -4 98 -15 134 -31z m1684 -46 c0 -5 -7 -7 -15 -4 -8 4 -15 8 -15 10
0 2 7 4 15 4 8 0 15 -4 15 -10z m-2450 -234 c52 -46 279 -166 314 -166 8 0 18
-5 22 -11 4 -7 0 -9 -12 -5 -11 3 -62 15 -114 26 -155 34 -267 96 -309 171
-12 22 -25 65 -28 97 l-5 57 39 -60 c22 -33 64 -82 93 -109z m-2471 130 c45
-8 85 -17 88 -19 7 -8 -63 -16 -192 -22 -260 -13 -579 -56 -855 -116 -629
-137 -1388 -516 -1955 -976 -76 -62 -144 -113 -150 -113 -15 1 354 357 470
454 226 188 484 357 710 467 446 216 753 302 1215 343 105 9 588 -4 669 -18z
m2251 -186 c0 -5 15 -26 33 -46 35 -41 192 -121 259 -132 22 -4 -167 -8 -419
-9 l-458 -1 173 43 c162 42 304 97 357 138 22 18 55 22 55 7z m-5325 -295 c14
-102 57 -272 81 -322 13 -28 24 -56 24 -62 0 -5 -33 -45 -73 -88 -84 -91 -193
-216 -225 -257 l-22 -29 0 47 c0 79 187 800 201 774 3 -7 10 -35 14 -63z
m2126 -51 c9 -70 -7 -308 -30 -465 -38 -254 -44 -290 -47 -286 -2 2 1 64 6
138 6 74 14 244 20 379 5 135 12 255 16 268 11 37 29 19 35 -34z m-145 -389
l2 -320 -13 150 c-18 205 -30 499 -21 521 20 50 29 -46 32 -351z m-428 267 c2
-6 -13 -13 -35 -16 -34 -5 -226 -48 -278 -63 -11 -3 -17 -3 -14 1 8 9 301 94
313 92 6 -1 11 -7 14 -14z m473 -795 c-8 -8 -11 -5 -11 9 0 27 14 41 18 19 2
-9 -1 -22 -7 -28z"/>
<path d="M2905 5320 c-26 -153 -27 -364 -2 -478 20 -91 70 -248 61 -192 -22
145 -27 220 -32 485 l-7 300 -20 -115z"/>
<path d="M7990 5542 c-29 -14 -38 -27 -54 -75 -18 -55 -18 -59 -1 -104 26 -68
60 -96 108 -90 69 9 107 65 107 156 0 55 -31 104 -73 116 -12 4 -29 8 -37 11
-8 2 -31 -4 -50 -14z"/>
</g>
</svg>
